# xmcd
#
# Track frame offsets: 
#        150
#        12117
#        25409
#        32864
#        44247
#        54468
#        64163
#        72125
#        80094
#        89045
#        105003
#
# Disc length: 1581 seconds
#
# Revision: 0
# Processed by: cddbd v1.5.2PL0 Copyright (c) Steve Scherf et al.
# Submitted via: ExactAudioCopy v1.0b1
#
DISCID=92062b0b
DTITLE=Johnny Cash - I Walk The Line (Original Soundtrack Recording)
DYEAR=1970
DGENRE=Country
TTITLE0=Flesh And Blood
TTITLE1=I Walk The Line
TTITLE2=Hungry
TTITLE3=This Town
TTITLE4=The Side Of The Law
TTITLE5=Flesh And Blood (Instrumental)
TTITLE6='Cause I Love You
TTITLE7='Cause I Love You (String Instrumental)
TTITLE8=The World's Gonna Fall On You
TTITLE9=Face Of Despair
TTITLE10=Standing On The Promises - Amazing Grace
EXTD=
EXTT0=
EXTT1=
EXTT2=
EXTT3=
EXTT4=
EXTT5=
EXTT6=
EXTT7=
EXTT8=
EXTT9=
EXTT10=
PLAYORDER=
